<?xml version="1.0" standalone="no"?>
<!DOCTYPE svg PUBLIC "-//W3C//DTD SVG 20010904//EN"
 "http://www.w3.org/TR/2001/REC-SVG-20010904/DTD/svg10.dtd">
<svg version="1.0" xmlns="http://www.w3.org/2000/svg"
 width="1080.000000pt" height="1080.000000pt" viewBox="0 0 1080.000000 1080.000000"
 preserveAspectRatio="xMidYMid meet">

<g transform="translate(0.000000,1080.000000) scale(0.100000,-0.100000)"
fill="#000000" stroke="none">
<path d="M8020 6450 c-294 -36 -528 -192 -616 -410 -32 -78 -42 -198 -25 -283
39 -185 207 -364 420 -446 92 -35 211 -61 285 -61 113 0 249 -63 306 -141 24
-33 30 -52 30 -90 0 -42 -5 -55 -35 -88 -42 -46 -105 -75 -200 -92 -103 -18
-479 -5 -567 19 -121 34 -214 106 -264 204 l-26 52 6 290 c6 324 0 395 -45
533 -73 221 -247 390 -455 439 -86 21 -245 21 -339 1 -150 -32 -306 -109 -461
-225 l-78 -59 -29 43 c-63 95 -190 180 -337 225 -63 20 -96 23 -205 23 -114
-1 -141 -5 -215 -29 -102 -33 -174 -72 -240 -131 l-49 -45 -3 78 -3 77 -40 12
c-48 15 -421 19 -430 5 -3 -6 -6 -297 -8 -648 l-2 -638 -32 -66 c-39 -79 -111
-150 -191 -187 -49 -23 -70 -27 -152 -27 -84 0 -101 3 -147 28 -66 34 -116 84
-151 150 l-27 52 -3 657 -3 657 -232 3 c-127 2 -235 0 -240 -3 -4 -3 -8 -286
-10 -630 l-2 -624 -23 -50 c-75 -161 -214 -256 -376 -256 -119 0 -211 47 -274
139 -62 91 -62 92 -62 789 0 615 -1 633 -19 643 -12 6 -106 10 -235 10 -182 0
-217 -2 -230 -16 -14 -13 -16 -75 -18 -502 -5 -827 -5 -836 20 -928 56 -209
172 -368 330 -452 267 -142 654 -70 961 179 38 30 67 47 69 40 9 -28 86 -113
134 -150 126 -93 254 -134 428 -134 184 0 337 53 458 159 l52 46 0 -76 c0 -74
1 -77 28 -88 33 -14 413 -24 436 -11 15 8 16 74 19 649 l2 639 32 65 c39 80
105 148 181 186 52 26 66 29 157 29 86 0 107 -4 150 -25 66 -32 121 -90 154
-159 l26 -56 3 -652 3 -652 231 -3 c144 -2 235 1 242 7 8 7 10 179 6 600 -4
520 -3 597 11 645 24 83 56 138 113 195 152 152 378 163 517 24 91 -91 147
-291 136 -479 -3 -47 -2 -157 2 -245 8 -139 13 -173 39 -250 47 -140 95 -218
197 -321 75 -76 105 -98 175 -132 47 -22 112 -45 145 -51 80 -14 640 -22 786
-11 389 28 668 266 695 593 12 153 -44 296 -162 413 -142 140 -311 208 -555
223 -99 6 -125 11 -175 36 -124 61 -199 164 -176 243 52 174 407 168 566 -9
25 -28 46 -57 46 -63 0 -7 10 -22 23 -34 21 -19 34 -21 217 -23 l195 -2 3 39
c9 107 -52 261 -143 361 -163 180 -463 285 -725 253z"/>
</g>
</svg>
