<?xml version="1.0" standalone="no"?>
<!DOCTYPE svg PUBLIC "-//W3C//DTD SVG 20010904//EN"
 "http://www.w3.org/TR/2001/REC-SVG-20010904/DTD/svg10.dtd">
<svg version="1.0" xmlns="http://www.w3.org/2000/svg"
 width="1968.000000pt" height="1668.000000pt" viewBox="0 0 1968.000000 1668.000000"
 preserveAspectRatio="xMidYMid meet">

<g transform="translate(0.000000,1668.000000) scale(0.100000,-0.100000)"
fill="#000000" stroke="none">
<path d="M14898 9980 c-518 -54 -944 -319 -1133 -703 -70 -142 -88 -224 -89
-402 -1 -177 18 -264 89 -411 200 -414 669 -693 1233 -735 235 -17 392 -76
521 -195 169 -156 170 -328 3 -456 -121 -92 -282 -130 -567 -132 -278 -2 -659
13 -741 29 -273 52 -489 210 -590 430 l-26 57 6 569 c5 489 4 584 -9 677 -74
501 -312 858 -699 1048 -198 96 -432 138 -658 115 -392 -38 -754 -195 -1117
-486 -52 -41 -97 -75 -100 -75 -4 0 -21 26 -40 57 -80 131 -240 268 -417 357
-202 101 -406 142 -659 133 -346 -12 -626 -123 -848 -336 l-69 -66 4 147 c2
121 0 150 -12 162 -8 7 -58 21 -111 30 -124 21 -710 23 -747 3 l-22 -12 -4
-1175 c-3 -878 -7 -1188 -16 -1225 -7 -27 -32 -91 -55 -140 -78 -164 -228
-297 -404 -358 -110 -39 -267 -48 -376 -23 -230 54 -412 237 -460 463 -13 57
-15 253 -15 1242 1 646 -3 1178 -7 1182 -5 5 -206 9 -448 9 -409 1 -440 0
-452 -16 -11 -15 -10 -22 2 -41 13 -20 15 -157 13 -1115 l-3 -1093 -22 -79
c-81 -283 -296 -502 -563 -573 -99 -26 -275 -24 -365 4 -207 66 -369 239 -419
448 -24 97 -26 206 -26 1361 0 950 -2 1103 -14 1113 -11 9 -128 13 -442 16
l-427 3 -23 -24 c-23 -22 -24 -29 -25 -176 0 -84 -4 -621 -8 -1193 -10 -1197
-11 -1171 76 -1440 201 -621 769 -955 1424 -840 326 58 670 221 963 456 109
89 119 95 123 84 11 -35 94 -144 155 -204 353 -354 982 -445 1491 -218 90 41
218 129 302 208 l76 72 -2 -148 c-1 -171 -1 -171 87 -187 81 -15 752 -22 787
-9 l27 11 0 1184 0 1185 25 78 c35 112 88 196 182 290 68 68 98 90 175 127
245 117 496 99 699 -50 96 -70 162 -161 208 -287 l26 -72 3 -1205 c1 -749 6
-1208 12 -1214 5 -5 181 -10 442 -10 406 -1 434 0 451 17 17 17 17 20 3 42
-15 22 -16 136 -14 1117 l3 1093 23 79 c113 399 494 656 862 582 261 -53 445
-243 527 -546 41 -153 45 -213 48 -675 3 -464 7 -517 51 -687 45 -176 137
-374 242 -523 79 -110 231 -260 340 -333 143 -95 261 -147 408 -177 87 -18
647 -31 1194 -28 298 2 361 5 464 23 531 92 954 426 1085 857 168 556 -126
1077 -745 1323 -167 67 -339 99 -579 109 -160 7 -175 9 -248 39 -169 69 -313
188 -365 299 -39 86 -41 159 -8 227 67 136 231 204 466 193 177 -9 319 -55
467 -153 97 -65 153 -125 193 -210 17 -34 43 -73 59 -87 l29 -24 328 -7 c181
-3 343 -9 361 -12 25 -5 34 -2 47 17 12 20 13 41 6 129 -13 143 -41 246 -100
365 -61 124 -122 205 -239 317 -263 254 -631 398 -1052 412 -79 3 -183 1 -231
-4z m-6721 -602 c-1 -46 -3 -11 -3 77 0 88 2 125 3 83 2 -42 2 -114 0 -160z
m790 -2920 c-1 -62 -3 -12 -3 112 0 124 2 174 3 113 2 -62 2 -164 0 -225z"/>
</g>
</svg>
